<?xml version="1.0" encoding="utf-8"?>
<?xml-stylesheet type="text/xsl" href="rss1.xsl"?>
<rss version="2.0" xmlns:atom="http://www.w3.org/2005/Atom" xmlns:content="http://purl.org/rss/1.0/modules/content/" xmlns:dc="http://purl.org/dc/elements/1.1/" xmlns:media="http://search.yahoo.com/mrss/">
<channel>
 <title>Getty</title>
 <link>http://www.gettyimg.com/</link>
 <atom:link href="http://www.gettyimg.com/" rel="self" type="application/rss+xml" />

 
                <item>
                <title><![CDATA[【HD Live Performances】FEED - Willkommen 2024 (2023.31.12) ZDF Sat FEED 1080i MPA2.0 H264 4.2.2-TSS]]></title>
                <link><![CDATA[https://sharemania.us/threads/willkommen-2024-2023-31-12-zdf-sat-feed-1080i-mpa2-0-h264-4-2-2-tss.235058/]]></link>
                <description><![CDATA[<article>
<blockquote class="messageText SelectQuoteContainer ugc baseHtml">
<img src="https://i.imgur.com/A6uoDCR.png" class="bbCodeImage LbImage" alt="[​IMG]" data-url="https://i.imgur.com/A6uoDCR.png" style=""> <br>
<br>
Mit "Willkommen 2024" präsentiert das ZDF am Sonntag, 31. Dezember 2023, ab 20.15 Uhr live die große Silvesterparty am Brandenburger Tor in Berlin. Andrea Kiewel und Johannes B. Kerner feiern mit den Zuschauerinnen und Zuschauern zu Hause und dem Publikum vor Ort den Silvester-Countdown. Unterstützt werden sie von Oli.P, der von der rund zweieinhalb Kilometer langen Festmeile berichtet und sich unter die Partygäste aus aller Welt mischt.<br>
<br>
Unter dem Motto "Celebrate at the Gate" begrüßen sie mit einer spektakulären Bühnenshow und einem farbenfrohen Höhenfeuerwerk das neue Jahr. Dabei sorgen nationale und internationale Musikacts für beste Unterhaltung. Mit dabei sind unter anderen Soul- und Pop-Musikerin Ayliva, Smokie-Legende Chris Norman, Sänger &amp; Songwriter Luca Hänni, der schottische Sänger Nathan Evans, Chartstürmerin Alice Merton, Sängerin Ella Endlich, das irische Stepptanz-Original Riverdance, das Electronic-Dance-Music-Duo Fast Boy, der britische Singer- und Songwriter Moss Kena und viele mehr.<br>
<br>
<div class="ToggleTriggerAnchor bbCodeSpoilerContainer">
<button type="button" class="button bbCodeSpoilerButton ToggleTrigger Tooltip JsOnly" data-target="> .SpoilerTarget"><span>Spoiler: <span class="SpoilerTitle">Media Info</span></span></button>
<div class="SpoilerTarget bbCodeSpoilerText">General<br>
Format : MPEG-TS<br>
File size : 38.8 GiB<br>
Duration : 4 h 32 min<br>
Overall bit rate mode : Variable<br>
Overall bit rate : 20.3 Mb/s<br>
<br>
Video<br>
ID : 512 (0x200)<br>
Menu ID : 1 (0x1)<br>
Format : AVC<br>
Format/Info : Advanced Video Codec<br>
Format profile : High 4:2:2@L4<br>
Format settings : CABAC / 3 Ref Frames<br>
Format settings, CABAC : Yes<br>
Format settings, Reference frames : 3 frames<br>
Format settings, GOP : M=3, N=15<br>
Codec ID : 27<br>
Duration : 4 h 32 min<br>
Bit rate mode : Constant<br>
Bit rate : 18.3 Mb/s<br>
Width : 1 920 pixels<br>
Height : 1 080 pixels<br>
Display aspect ratio : 16:9<br>
Frame rate : 25.000 FPS<br>
Color space : YUV<br>
Chroma subsampling : 4:2:2<br>
Bit depth : 8 bits<br>
Scan type : Interlaced<br>
Scan type, store method : Separated fields<br>
Scan order : Top Field First<br>
Bits/(Pixel*Frame) : 0.353<br>
Stream size : 33.9 GiB (87%)<br>
Color range : Limited<br>
Color primaries : BT.709<br>
Transfer characteristics : BT.709<br>
Matrix coefficients : BT.709<br>
<br>
Audio #1<br>
ID : 4112 (0x1010)<br>
Menu ID : 1 (0x1)<br>
Format : MPEG Audio<br>
Format version : Version 1<br>
Format profile : Layer 2<br>
Format settings : Intensity Stereo + MS Stereo<br>
Codec ID : 3<br>
Duration : 4 h 32 min<br>
Bit rate mode : Constant<br>
Bit rate : 384 kb/s<br>
Channel(s) : 2 channels<br>
Sampling rate : 48.0 kHz<br>
Frame rate : 41.667 FPS (1152 SPF)<br>
Compression mode : Lossy<br>
Delay relative to video : 70 ms<br>
Stream size : 749 MiB (2%)<br>
Language : English<br>
Audio #2<br>
ID : 4128 (0x1020)<br>
Menu ID : 1 (0x1)<br>
Format : MPEG Audio<br>
Format version : Version 1<br>
Format profile : Layer 2<br>
Format settings : Intensity Stereo + MS Stereo<br>
Codec ID : 3<br>
Duration : 4 h 32 min<br>
Bit rate mode : Constant<br>
Bit rate : 384 kb/s<br>
Channel(s) : 2 channels<br>
Sampling rate : 48.0 kHz<br>
Frame rate : 41.667 FPS (1152 SPF)<br>
Compression mode : Lossy<br>
Delay relative to video : 70 ms<br>
Stream size : 749 MiB (2%)<br>
Language : French<br>
Audio #3<br>
ID : 4144 (0x1030)<br>
Menu ID : 1 (0x1)<br>
Format : MPEG Audio<br>
Format version : Version 1<br>
Format profile : Layer 2<br>
Format settings : Intensity Stereo + MS Stereo<br>
Codec ID : 3<br>
Duration : 4 h 32 min<br>
Bit rate mode : Constant<br>
Bit rate : 384 kb/s<br>
Channel(s) : 2 channels<br>
Sampling rate : 48.0 kHz<br>
Frame rate : 41.667 FPS (1152 SPF)<br>
Compression mode : Lossy<br>
Delay relative to video : 70 ms<br>
Stream size : 749 MiB (2%)<br>
Language : English<br>
Audio #4<br>
ID : 4160 (0x1040)<br>
Menu ID : 1 (0x1)<br>
Format : MPEG Audio<br>
Format version : Version 1<br>
Format profile : Layer 2<br>
Format settings : Intensity Stereo + MS Stereo<br>
Codec ID : 3<br>
Duration : 4 h 32 min<br>
Bit rate mode : Constant<br>
Bit rate : 384 kb/s<br>
Channel(s) : 2 channels<br>
Sampling rate : 48.0 kHz<br>
Frame rate : 41.667 FPS (1152 SPF)<br>
Compression mode : Lossy<br>
Delay relative to video : 46 ms<br>
Stream size : 749 MiB (2%)<br>
Language : English</div>
</div><br>
Download<br>
<div class="bbCodeBlock bbCodeVfcHH HiddenContent">
<div class="attribution type">Hidden Content:</div>
<blockquote>You must reply before you can see the hidden data contained here.</blockquote>
</div>
<div class="messageTextEndMarker">&nbsp;</div>
</blockquote>
</article>]]></description>
                <author><![CDATA[theslothsidd]]></author>
                </item>

                
                <item>
                <title><![CDATA[【HD Live Performances】HDTV - Willkommen 2024 (2023.31.12) ZDF 720p HDTV DD2.0 H264-TSS]]></title>
                <link><![CDATA[https://sharemania.us/threads/willkommen-2024-2023-31-12-zdf-720p-hdtv-dd2-0-h264-tss.235057/]]></link>
                <description><![CDATA[<article>
<blockquote class="messageText SelectQuoteContainer ugc baseHtml">
<div style="text-align: center"><img src="https://i.imgur.com/la5n5kQ.png" class="bbCodeImage LbImage" alt="[​IMG]" data-url="https://i.imgur.com/la5n5kQ.png" style=""> ​</div><br>
Mit "Willkommen 2024" präsentiert das ZDF am Sonntag, 31. Dezember 2023, ab 20.15 Uhr live die große Silvesterparty am Brandenburger Tor in Berlin. Andrea Kiewel und Johannes B. Kerner feiern mit den Zuschauerinnen und Zuschauern zu Hause und dem Publikum vor Ort den Silvester-Countdown. Unterstützt werden sie von Oli.P, der von der rund zweieinhalb Kilometer langen Festmeile berichtet und sich unter die Partygäste aus aller Welt mischt.<br>
<br>
Unter dem Motto "Celebrate at the Gate" begrüßen sie mit einer spektakulären Bühnenshow und einem farbenfrohen Höhenfeuerwerk das neue Jahr. Dabei sorgen nationale und internationale Musikacts für beste Unterhaltung. Mit dabei sind unter anderen Soul- und Pop-Musikerin Ayliva, Smokie-Legende Chris Norman, Sänger &amp; Songwriter Luca Hänni, der schottische Sänger Nathan Evans, Chartstürmerin Alice Merton, Sängerin Ella Endlich, das irische Stepptanz-Original Riverdance, das Electronic-Dance-Music-Duo Fast Boy, der britische Singer- und Songwriter Moss Kena und viele mehr.<br>
<br>
<br>
<div class="ToggleTriggerAnchor bbCodeSpoilerContainer">
<button type="button" class="button bbCodeSpoilerButton ToggleTrigger Tooltip JsOnly" data-target="> .SpoilerTarget"><span>Spoiler: <span class="SpoilerTitle">Media Info</span></span></button>
<div class="SpoilerTarget bbCodeSpoilerText">General<br>
Format : MPEG-TS<br>
File size : 28.9 GiB<br>
Duration : 4 h 32 min<br>
Overall bit rate mode : Variable<br>
Overall bit rate : 15.2 Mb/s<br>
<br>
Video<br>
ID : 256 (0x100)<br>
Menu ID : 1 (0x1)<br>
Format : AVC<br>
Format/Info : Advanced Video Codec<br>
Format profile : High@L4<br>
Format settings : CABAC / 6 Ref Frames<br>
Format settings, CABAC : Yes<br>
Format settings, Reference frames : 6 frames<br>
Format settings, GOP : M=4, N=33<br>
Codec ID : 27<br>
Duration : 4 h 32 min<br>
Bit rate : 13.3 Mb/s<br>
Width : 1 280 pixels<br>
Height : 720 pixels<br>
Display aspect ratio : 16:9<br>
Frame rate : 50.000 FPS<br>
Color space : YUV<br>
Chroma subsampling : 4:2:0<br>
Bit depth : 8 bits<br>
Scan type : Progressive<br>
Bits/(Pixel*Frame) : 0.289<br>
Stream size : 25.4 GiB (88%)<br>
Color range : Limited<br>
Color primaries : BT.709<br>
Transfer characteristics : BT.709<br>
Matrix coefficients : BT.709<br>
<br>
Audio #1<br>
ID : 257 (0x101)<br>
Menu ID : 1 (0x1)<br>
Format : MPEG Audio<br>
Format version : Version 1<br>
Format profile : Layer 2<br>
Codec ID : 3<br>
Duration : 4 h 32 min<br>
Bit rate mode : Constant<br>
Bit rate : 256 kb/s<br>
Channel(s) : 2 channels<br>
Sampling rate : 48.0 kHz<br>
Frame rate : 41.667 FPS (1152 SPF)<br>
Compression mode : Lossy<br>
Delay relative to video : 10 ms<br>
Stream size : 499 MiB (2%)<br>
Language : German<br>
Audio #2<br>
ID : 258 (0x102)<br>
Menu ID : 1 (0x1)<br>
Format : MPEG Audio<br>
Format version : Version 1<br>
Format profile : Layer 2<br>
Codec ID : 3<br>
Duration : 4 h 32 min<br>
Bit rate mode : Constant<br>
Bit rate : 192 kb/s<br>
Channel(s) : 2 channels<br>
Sampling rate : 48.0 kHz<br>
Frame rate : 41.667 FPS (1152 SPF)<br>
Compression mode : Lossy<br>
Delay relative to video : 6 ms<br>
Stream size : 375 MiB (1%)<br>
Language : Maori<br>
Audio #3<br>
ID : 259 (0x103)<br>
Menu ID : 1 (0x1)<br>
Format : AC-3<br>
Format/Info : Audio Coding 3<br>
Commercial name : Dolby Digital<br>
Codec ID : 129<br>
Duration : 4 h 32 min<br>
Bit rate mode : Constant<br>
Bit rate : 448 kb/s<br>
Channel(s) : 2 channels<br>
Channel layout : L R<br>
Sampling rate : 48.0 kHz<br>
Frame rate : 31.250 FPS (1536 SPF)<br>
Compression mode : Lossy<br>
Delay relative to video : 23 ms<br>
Stream size : 874 MiB (3%)<br>
Language : German<br>
Service kind : Complete Main<br>
Audio #4<br>
ID : 260 (0x104)<br>
Menu ID : 1 (0x1)<br>
Format : MPEG Audio<br>
Format version : Version 1<br>
Format profile : Layer 2<br>
Codec ID : 3<br>
Duration : 4 h 32 min<br>
Bit rate mode : Constant<br>
Bit rate : 192 kb/s<br>
Channel(s) : 2 channels<br>
Sampling rate : 48.0 kHz<br>
Frame rate : 41.667 FPS (1152 SPF)<br>
Compression mode : Lossy<br>
Delay relative to video : 18 ms<br>
Stream size : 375 MiB (1%)<br>
Language : Multiple languages<br>
Menu<br>
ID : 4096 (0x1000)<br>
Menu ID : 1 (0x1)<br>
Format : AVC / MPEG Audio / MPEG Audio / AC-3 / MPEG Audio<br>
Duration : 4 h 32 min<br>
List : 256 (0x100) (AVC) / 257 (0x101) (MPEG Audio, German) / 258 (0x102) (MPEG Audio, Maori) / 259 (0x103) (AC-3, German) / 260 (0x104) (MPEG Audio, Multiple languages)<br>
Language : / German / Maori / German / Multiple languages<br>
Service name : Service01<br>
Service provider : FFmpeg<br>
Service type : digital television</div>
</div><br>
<br>
Download<br>
<div class="bbCodeBlock bbCodeVfcHH HiddenContent">
<div class="attribution type">Hidden Content:</div>
<blockquote>You must reply before you can see the hidden data contained here.</blockquote>
</div>
<div class="messageTextEndMarker">&nbsp;</div>
</blockquote>
</article>]]></description>
                <author><![CDATA[theslothsidd]]></author>
                </item>

                </channel></rss>